# xmcd
#
# Track frame offsets: 
#        150
#        12047
#        23510
#        35869
#        51927
#        67051
#        80210
#        90609
#        106092
#        119142
#        128827
#        144610
#        156372
#        164563
#        192244
#
# Disc length: 2638 seconds
#
# Revision: 0
# Processed by: cddbd v1.5.2PL0 Copyright (c) Steve Scherf et al.
# Submitted via: ExactAudioCopy v0.99pb5
#
DISCID=d60a4c0f
DTITLE=Johnny Carlevale - That Ain't No Way To Spend A Friday Night
DYEAR=2006
DGENRE=Blues
TTITLE0=Give It Up
TTITLE1=My Baby Ain't Home
TTITLE2=Hi-Tail, Then Boogie
TTITLE3=Mean Mean Thing
TTITLE4=Tongue Tied
TTITLE5=Alabama Women Blues
TTITLE6=Whiskey Like Water
TTITLE7=Love Me
TTITLE8=You Wore Me Out
TTITLE9=You Talk Too Much
TTITLE10=Put Out The Lights
TTITLE11=The I-80 Bliues
TTITLE12=That Ain't No Way To Spend A Friday Night
TTITLE13=You Ain't Puttin' Out Nothin' But The Lights
TTITLE14=Talk
EXTD=
EXTT0=
EXTT1=
EXTT2=
EXTT3=
EXTT4=
EXTT5=
EXTT6=
EXTT7=
EXTT8=
EXTT9=
EXTT10=
EXTT11=
EXTT12=
EXTT13=
EXTT14=
PLAYORDER=
